<svg width="308" height="368" viewBox="0 0 308 368" fill="none" xmlns="http://www.w3.org/2000/svg">
<path d="M54.0508 337.569C52.4624 340.349 53.1465 332.943 53.1465 331.993C53.1465 325.11 53.1465 318.228 53.1465 311.345C53.1465 296.009 53.4702 279.241 57.718 264.374C63.2659 244.956 70.2964 227.705 80.5759 210.269C87.8787 197.882 92.7587 185.191 103.333 174.902C111.173 167.274 123.661 163.365 133.576 159.027C143.903 154.509 158.422 154.4 169.294 156.917C182.259 159.918 196.36 160.492 207.726 167.969C220.045 176.074 227.173 188.224 234.401 200.925C248.099 224.993 252.262 254.75 254.798 282.007C256.332 298.5 253.849 315.189 244.851 329.33C242.224 333.458 239.16 336.047 234 335.761C227.766 335.414 223.334 323.82 221.39 319.082C213.961 300.974 215.011 279.582 216.919 260.506C217.847 251.223 219.531 242.022 219.531 232.624C219.531 223.008 216.583 214.31 214.106 205.145C212.139 197.866 207.927 187.352 202.752 181.684C197.792 176.252 190.353 173.567 185.672 168.271C174.864 156.041 160.54 160.716 146.487 158.324C135.91 156.523 121.433 158.058 113.531 165.96C104.567 174.924 96.4458 184.226 91.628 196.052C84.7358 212.969 84.4296 233.699 86.1522 251.614C87.1459 261.949 88.7905 294.655 104.69 293.21C112.293 292.519 116.031 283.685 117.55 277.486C120.049 267.291 119.292 256.084 117.751 245.736C116.336 236.236 115.45 226.732 113.682 217.302C112.584 211.448 109.688 205.963 108.508 200.322C107.869 197.269 106.498 192.83 106.498 189.772C106.498 186.426 103.785 183.783 103.785 180.428C103.785 177.115 104.613 169.391 107.804 167.567C114.034 164.007 121.919 160.97 129.105 158.575C133.865 156.988 137.567 155.812 142.669 155.812C149.662 155.812 156.561 158.41 163.668 158.525C171.652 158.653 179.405 160.738 187.38 161.288C193.318 161.697 200.378 163.583 206.168 161.438C217.289 157.319 219.38 142.037 221.541 132.1C223.047 125.169 225.861 118.201 225.861 111.051C225.861 105.173 225.861 99.2953 225.861 93.4175C225.861 88.779 224.775 81.3375 222.244 77.3417C219.081 72.3481 214.646 71.5251 209.584 69.4545C197.688 64.5879 182.716 66.2201 170.249 67.1436C164.092 67.5997 156.393 66.8162 150.606 69.0024C145.67 70.8672 140.21 71.7103 134.982 72.6194C125.497 74.269 116.735 75.9277 110.517 83.9228C101.479 95.5425 103.747 116.31 108.106 129.387C111.588 139.834 113.014 151.117 119.158 160.333" stroke="#5768FF" stroke-width="3" stroke-linecap="round"/>
<path d="M111.02 83.4713C116.822 69.932 116.445 24.8841 116.445 39.6145C116.445 45.5678 119.635 52.5589 120.966 58.3528C121.5 60.6752 124.728 75.9485 125.488 74.4287" stroke="black" stroke-width="3" stroke-linecap="round"/>
<path d="M153.52 66.2893C154.109 69.2388 156.202 60.8751 157.086 58.0002C157.442 56.8433 159.033 44.3895 160.251 44.7376C161.746 45.1646 164.075 65.4372 164.371 68.0978" stroke="black" stroke-width="3" stroke-linecap="round"/>
<path d="M188.786 65.3858C188.964 66.8069 194.604 52.6333 195.116 50.8171C195.668 48.8598 201.536 26 203.254 26C204.092 26 203.254 27.6746 203.254 28.5118C203.254 33.355 203.974 38.1419 204.108 42.9801C204.333 51.0721 205.967 75.2895 205.967 67.1943" stroke="black" stroke-width="3" stroke-linecap="round"/>
<path d="M255.702 295.973C255.702 305.612 258.415 314.782 258.415 324.457C258.415 330.672 259.319 336.639 259.319 342.994" stroke="black" stroke-width="3" stroke-linecap="round"/>
<path d="M201.446 116.024C201.446 125.954 191.475 135.918 181.552 135.918" stroke="black" stroke-width="3" stroke-linecap="round"/>
<path d="M118.477 98.0793C124.535 98.4158 130.3 97.4859 136.38 96.8104C137.873 96.6445 139.175 96.0028 140.694 96.0028C142.102 96.0028 143.319 95.8706 144.64 95.3568C145.278 95.1087 147.131 94.0721 147.131 95.3799C147.131 96.9103 147.131 98.4407 147.131 99.9712C147.131 106.968 144.053 110.123 137.372 110.123C134.934 110.123 132.881 109.606 131.558 107.4C130.88 106.271 128.043 100.356 129.274 99.7404" stroke="black" stroke-width="3" stroke-linecap="round"/>
<path d="M159.888 95.4668C165.871 96.4738 171.705 96.1897 177.822 96.1933C179.324 96.1942 180.689 95.7011 182.199 95.8697C183.598 96.0259 184.822 96.0296 186.192 95.6657C186.853 95.49 188.811 94.6655 188.666 95.9652C188.496 97.4862 188.326 99.0071 188.156 100.528C187.379 107.481 183.97 110.275 177.33 109.533C174.907 109.263 172.924 108.521 171.854 106.182C171.306 104.984 169.143 98.7914 170.435 98.3164" stroke="black" stroke-width="3" stroke-linecap="round"/>
</svg>
