<svg width="304" height="100" viewBox="0 0 304 100" fill="none" xmlns="http://www.w3.org/2000/svg">
<g clip-path="url(#clip0_50_12)">
<rect width="304" height="100" fill="white"/>
<path d="M0 80C1.71234 78.531 3.67952 78.401 5.89518 78.785C9.88832 79.4771 13.6668 79.1099 17.6457 78.2535C25.2609 76.6144 32.8637 74.5333 40.3103 72.3304C43.6377 71.3461 47.4896 70.432 50.9853 70.432C57.6596 70.432 63.8203 66.8139 70.5828 66.3694C88.2968 65.2049 105.833 66.9973 123.321 68.9133C138.427 70.5683 154.757 74.743 169.925 71.4571C176.69 69.9916 184.134 69.6872 191.036 68.9133C197.378 68.202 203.613 67.0518 210.075 67.7363C215.534 68.3144 221.205 70.0069 226.725 70.9636C229.892 71.5124 233.355 72.1385 236.564 72.4443C239.321 72.7071 241.575 73.9136 244.331 74.3807C257.53 76.6174 270.886 76.5829 284.283 76.5829C290.927 76.5829 297.688 76.9141 304 78.6331" stroke="black" stroke-width="3" stroke-linecap="round"/>
<path d="M146.574 17.6499C145.793 17.6499 145.011 17.6499 144.23 17.6499C143.729 17.6499 143.315 17.7672 142.826 17.8424C142.443 17.9013 142.074 17.6499 141.682 17.6499C139.74 17.6499 138.081 18.5226 136.28 19.0768C135.076 19.4474 131.286 20.0793 131.286 21.6814C131.286 24.3082 130.717 27.0615 131.184 29.6765C131.439 31.1068 131.286 32.6644 131.286 34.1157C131.286 35.935 131.649 37.7784 131.943 39.5742C132.501 42.986 132.917 46.593 132.917 50.072C132.917 51.485 133.081 52.8537 133.121 54.2507C133.133 54.6793 133.151 56.9037 133.37 57.1498C133.715 57.5378 136.911 53.7298 137.503 53.7298C138.17 53.7298 137.982 52.7443 138.466 52.3482C138.765 52.1037 139.33 52.2036 139.553 51.8499C139.901 51.297 139.835 50.572 140.244 49.9587C140.992 48.8368 142.023 50.8846 142.09 48.5205C142.1 48.1557 142.082 46.4142 142.712 46.4142C143.174 46.4142 143.59 46.7507 144.083 46.5501C144.915 46.211 144.464 45.1061 144.875 44.557C145.362 43.9086 146.148 44.3328 146.767 44.1266C147.191 43.985 147.598 42.5407 147.956 42.1562C148.4 41.6786 148.557 41.7701 149.122 41.8957C149.812 42.049 150.926 40.6483 151.512 40.3216C152.326 39.8672 153.309 39.6866 154.116 39.2118C154.347 39.0762 154.46 38.6745 154.569 38.4417C154.726 38.1081 154.063 38.2329 153.81 38.136C152.53 37.6436 151.699 36.6723 150.945 35.5766C150.18 34.463 150.625 33.1976 150.198 31.9641C150.06 31.5667 149.502 31.5954 149.326 31.1034C149.159 30.6351 148.954 30.2188 148.862 29.7218C148.702 28.8643 148.876 28.079 148.295 27.3324C147.701 26.5686 147.04 25.4865 146.687 24.5805C146.314 23.6213 146.37 22.7111 146.37 21.6814C146.37 21.1813 145.77 18.4535 145.555 18.6691" stroke="#5768FF" stroke-width="3" stroke-linecap="round"/>
<path d="M152.078 16.6307C152.279 18.6422 153.832 20.349 155.034 21.8174C155.988 22.9845 156.94 24.009 157.797 25.294C158.346 26.1183 159.639 25.8458 160.39 26.3019C161.214 26.8024 161.408 27.1806 161.76 27.9552C162.02 28.5257 162.056 31.2381 163.289 30.7977C165.67 29.9474 167.627 27.625 170.118 27.2418C172.066 26.9421 173.794 27.346 175.723 26.7322C177.752 26.0867 179.463 24.4403 181.533 23.9803C182.089 23.8568 182.005 23.632 182.405 23.3122C182.73 23.052 183.302 22.8907 183.56 22.6327C184.152 22.0409 183.621 19.6166 183.424 18.873C183.102 17.6557 183.062 16.4257 183.062 15.1585C183.062 14.9107 181.785 15.2038 181.34 15.2038C180.47 15.2038 179.665 15 178.781 15C177.03 15 175.278 15 173.526 15C169.609 15 165.813 15.4077 161.908 15.4077C160.432 15.4077 158.026 14.6554 156.608 15.453C155.878 15.8632 153.603 15.113 153.301 16.0192" stroke="#5768FF" stroke-width="3" stroke-linecap="round"/>
<path d="M185.1 34.3647C184.521 34.4291 184.09 34.9763 183.469 34.9763C183.08 34.9763 182.305 34.9535 182.042 35.282C181.287 36.2259 180.043 36.5279 178.996 37.1166C178.392 37.4564 177.811 37.5575 177.15 37.2638C176.444 36.9499 175.652 37.5569 175.123 37.9206C174.008 38.6873 172.669 39.2364 171.431 39.7779C170.546 40.165 170.198 39.6646 169.302 39.6646C168.746 39.6646 168.608 40.0189 168.181 40.0723C167.107 40.2066 169.048 42.6829 169.291 42.9261C170.355 43.9902 171.239 44.4573 171.239 46.029C171.239 46.891 170.932 47.8183 172.043 47.8183C173.121 47.8183 173.708 48.5369 174.296 49.4037C175.509 51.1913 177.349 52.255 178.668 53.9335C179.304 54.743 179.935 56.0009 180.321 56.9458C180.683 57.8297 180.524 59.6883 181.238 60.3432C181.581 60.6571 182.029 60.6274 182.405 60.8641C182.794 61.1094 183.089 61.5281 183.424 61.838C183.989 62.3613 185.017 63.0534 185.712 63.4008C186.209 63.6494 186.767 64.2975 187.342 64.3294C187.963 64.3639 187.944 62.7676 188.044 62.2797C188.415 60.4807 188.158 58.4298 188.158 56.5948C188.158 55.0282 188.158 53.4617 188.158 51.8951C188.158 49.3131 188.158 46.7311 188.158 44.1491C188.158 43.0796 188.392 34.3647 187.342 34.3647" stroke="#5768FF" stroke-width="3" stroke-linecap="round"/>
<path d="M159.212 45.9839C158.352 45.9839 157.87 47.0183 157.072 47.1956C156.418 47.3408 155.667 47.7427 155.339 48.3167C155.036 48.8481 154.584 49.3607 154.365 50.0154C154.12 50.7502 154.131 51.5914 153.754 52.303C153.454 52.8699 152.506 52.7383 152.078 53.2203C151.843 53.4839 151.502 53.5509 151.262 53.8205C151.025 54.0871 151.161 54.647 150.753 54.7377C149.92 54.9228 150.06 56.0291 149.349 56.1873C148.692 56.3331 147.722 57.1071 147.197 57.5009C146.104 58.3202 144.948 58.878 143.969 59.8904C143.084 60.8067 142.186 61.6316 141.274 62.495C140.649 63.0875 136.701 65.3774 137.967 66.4133C138.65 66.9718 139.739 66.7757 140.561 66.7757C141.636 66.7757 142.31 67.1593 143.335 67.3872C146.576 68.1074 149.904 68.1897 153.21 68.4178C154.944 68.5373 156.611 68.7545 158.352 68.4517C159.997 68.1655 161.867 67.9677 163.448 67.3872C165.727 66.55 168.092 65.7565 170.525 65.7565C171.267 65.7565 169.704 64.7514 169.563 64.5334C169.385 64.2587 168.987 64.1958 168.702 64.1144C168.584 64.0806 168.474 63.4065 168.43 63.2651C168.048 62.0221 167.879 60.9625 167.321 59.8451C166.98 59.163 165.915 58.87 165.746 58.1124C165.571 57.3224 164.884 56.7037 164.523 55.9834C163.958 54.8528 163.161 53.8128 162.383 52.8126C162.038 52.3686 161.661 51.4876 161.047 51.4876C160.031 51.4876 160.154 51.4384 159.869 50.5137C159.485 49.2661 160.427 48.006 159.824 46.7993" stroke="#5768FF" stroke-width="3" stroke-linecap="round"/>
</g>
<defs>
<clipPath id="clip0_50_12">
<rect width="304" height="100" fill="white"/>
</clipPath>
</defs>
</svg>
