<svg width="100" height="100" viewBox="0 0 100 100" fill="none" xmlns="http://www.w3.org/2000/svg">
<rect width="100" height="100" fill="white"/>
<path d="M37.4286 70C40.9643 70 43.8571 67.4286 43.8571 64.2857V35.7143C43.8571 32.5714 40.9643 30 37.4286 30C33.8929 30 31 32.5714 31 35.7143V64.2857C31 67.4286 33.8929 70 37.4286 70ZM56.7143 35.7143V64.2857C56.7143 67.4286 59.6071 70 63.1429 70C66.6786 70 69.5714 67.4286 69.5714 64.2857V35.7143C69.5714 32.5714 66.6786 30 63.1429 30C59.6071 30 56.7143 32.5714 56.7143 35.7143Z" fill="black"/>
</svg>
