<svg width="100" height="100" viewBox="0 0 100 100" fill="none" xmlns="http://www.w3.org/2000/svg">
<rect width="100" height="100" fill="white"/>
<path d="M66.1663 26.0623C65.1026 26.0623 64.0826 26.4848 63.3305 27.2369C62.5784 27.989 62.1559 29.0091 62.1559 30.0727V45.3925L61.5944 44.7909L41.1413 27.9071C39.9099 26.9205 38.4262 26.2997 36.8592 26.1153C35.2922 25.931 33.7049 26.1905 32.2782 26.8644C31.0758 27.44 30.061 28.3445 29.3513 29.4729C28.6415 30.6014 28.2659 31.9078 28.2678 33.2409V67.0087C28.2659 68.3418 28.6415 69.6482 29.3513 70.7767C30.061 71.9051 31.0758 72.8096 32.2782 73.3852C33.4247 73.9066 34.6683 74.1799 35.9277 74.1873C37.8259 74.1896 39.667 73.5381 41.1413 72.3425L61.5944 55.4587L62.1559 54.8571V70.1769C62.1559 71.2405 62.5784 72.2606 63.3305 73.0127C64.0826 73.7648 65.1026 74.1873 66.1663 74.1873C67.2299 74.1873 68.25 73.7648 69.0021 73.0127C69.7542 72.2606 70.1767 71.2405 70.1767 70.1769V30.0727C70.1767 29.0091 69.7542 27.989 69.0021 27.2369C68.25 26.4848 67.2299 26.0623 66.1663 26.0623Z" fill="black"/>
</svg>
