<svg width="100" height="100" viewBox="0 0 100 100" fill="none" xmlns="http://www.w3.org/2000/svg">
<rect width="100" height="100" fill="white"/>
<path d="M67.9709 26.8644C66.5443 26.1905 64.957 25.931 63.39 26.1153C61.823 26.2997 60.3392 26.9205 59.1079 27.9071L38.6548 44.7909L38.0933 45.3925V30.0727C38.0933 29.0091 37.6708 27.989 36.9187 27.2369C36.1666 26.4848 35.1466 26.0623 34.0829 26.0623C33.0193 26.0623 31.9992 26.4848 31.2471 27.2369C30.495 27.989 30.0725 29.0091 30.0725 30.0727V70.1769C30.0725 71.2405 30.495 72.2606 31.2471 73.0127C31.9992 73.7648 33.0193 74.1873 34.0829 74.1873C35.1466 74.1873 36.1666 73.7648 36.9187 73.0127C37.6708 72.2606 38.0933 71.2405 38.0933 70.1769V54.8571L38.6548 55.4587L59.1079 72.3425C60.5822 73.5381 62.4233 74.1896 64.3215 74.1873C65.5809 74.1799 66.8245 73.9066 67.9709 73.3852C69.2109 72.8387 70.2673 71.9468 71.014 70.8161C71.7607 69.6854 72.1661 68.3636 72.1819 67.0087V33.2409C72.1661 31.886 71.7607 30.5643 71.014 29.4335C70.2673 28.3028 69.2109 27.4109 67.9709 26.8644Z" fill="black"/>
</svg>
