<svg width="308" height="368" viewBox="0 0 308 368" fill="none" xmlns="http://www.w3.org/2000/svg">
<rect width="308" height="368" fill="white"/>
<path d="M145.649 251.463C144.774 252.993 145.151 248.917 145.151 248.394C145.151 244.607 145.151 240.819 145.151 237.031C145.151 228.591 145.329 219.364 147.667 211.182C150.72 200.496 154.589 191.002 160.246 181.407C164.265 174.59 166.95 167.605 172.77 161.943C177.084 157.745 183.957 155.594 189.413 153.207C195.096 150.721 203.086 150.661 209.07 152.046C216.204 153.697 223.965 154.013 230.219 158.128C236.999 162.589 240.922 169.275 244.9 176.264C252.438 189.51 254.729 205.886 256.124 220.886C256.969 229.963 255.603 239.147 250.65 246.929C249.205 249.201 247.518 250.625 244.679 250.468C241.248 250.277 238.809 243.896 237.739 241.289C233.651 231.324 234.229 219.551 235.279 209.053C235.79 203.945 236.716 198.881 236.716 193.709C236.716 188.417 235.094 183.63 233.731 178.587C232.648 174.581 230.331 168.795 227.482 165.676C224.753 162.686 220.659 161.209 218.083 158.294C212.135 151.563 204.252 154.136 196.518 152.82C190.697 151.829 182.731 152.674 178.382 157.022C173.449 161.956 168.98 167.075 166.328 173.583C162.535 182.892 162.367 194.301 163.315 204.16C163.862 209.847 164.767 227.846 173.516 227.051C177.701 226.671 179.758 221.809 180.594 218.398C181.969 212.787 181.553 206.62 180.704 200.925C179.926 195.697 179.438 190.467 178.465 185.277C177.861 182.056 176.267 179.037 175.617 175.932C175.266 174.252 174.512 171.81 174.512 170.127C174.512 168.285 173.019 166.831 173.019 164.984C173.019 163.161 173.474 158.91 175.23 157.907C178.659 155.948 182.998 154.276 186.953 152.958C189.572 152.085 191.609 151.438 194.417 151.438C198.266 151.438 202.062 152.867 205.973 152.931C210.367 153.001 214.634 154.148 219.023 154.451C222.291 154.676 226.176 155.714 229.362 154.534C235.483 152.267 236.633 143.857 237.822 138.388C238.651 134.574 240.2 130.739 240.2 126.805C240.2 123.57 240.2 120.335 240.2 117.101C240.2 114.548 239.602 110.453 238.209 108.254C236.469 105.506 234.028 105.053 231.242 103.913C224.696 101.235 216.456 102.133 209.595 102.641C206.207 102.892 201.97 102.461 198.785 103.664C196.069 104.691 193.064 105.155 190.187 105.655C184.967 106.563 180.145 107.475 176.723 111.875C171.75 118.27 172.997 129.699 175.396 136.896C177.313 142.645 178.097 148.854 181.479 153.926" stroke="#5768FF" stroke-width="3" stroke-linecap="round"/>
<path d="M177 111.628C180.193 104.177 179.986 79.3859 179.986 87.4924C179.986 90.7687 181.742 94.616 182.474 97.8046C182.768 99.0826 184.544 107.488 184.962 106.652" stroke="black" stroke-width="3" stroke-linecap="round"/>
<path d="M200.389 102.172C200.713 103.795 201.865 99.1924 202.352 97.6103C202.547 96.9736 203.423 90.12 204.093 90.3116C204.916 90.5466 206.198 101.703 206.36 103.167" stroke="black" stroke-width="3" stroke-linecap="round"/>
<path d="M219.797 101.675C219.895 102.457 222.998 94.6569 223.28 93.6574C223.584 92.5803 226.813 80 227.759 80C228.22 80 227.759 80.9216 227.759 81.3823C227.759 84.0476 228.155 86.682 228.229 89.3445C228.353 93.7978 229.252 107.125 229.252 102.67" stroke="black" stroke-width="3" stroke-linecap="round"/>
<path d="M226.763 129.543C226.763 135.007 221.277 140.491 215.815 140.491" stroke="black" stroke-width="3" stroke-linecap="round"/>
<path d="M181.104 119.667C184.437 119.852 187.61 119.34 190.956 118.969C191.778 118.877 192.494 118.524 193.331 118.524C194.105 118.524 194.775 118.452 195.502 118.169C195.853 118.032 196.873 117.462 196.873 118.182C196.873 119.024 196.873 119.866 196.873 120.708C196.873 124.559 195.179 126.295 191.502 126.295C190.16 126.295 189.031 126.01 188.303 124.797C187.93 124.175 186.368 120.92 187.046 120.581" stroke="black" stroke-width="3" stroke-linecap="round"/>
<path d="M203.893 118.229C207.186 118.783 210.396 118.627 213.763 118.629C214.589 118.629 215.341 118.358 216.171 118.451C216.941 118.537 217.615 118.539 218.369 118.338C218.733 118.242 219.81 117.788 219.73 118.503C219.637 119.34 219.543 120.177 219.45 121.014C219.022 124.841 217.146 126.378 213.492 125.97C212.158 125.821 211.067 125.413 210.478 124.126C210.177 123.467 208.986 120.059 209.697 119.797" stroke="black" stroke-width="3" stroke-linecap="round"/>
<path d="M77.2181 150.906C76.2152 150.079 76.724 149.188 77.0759 150.25C77.5892 151.8 78.6999 153.029 79.1824 154.549C80.2201 157.817 80.9663 160.851 82.3036 164.074C84.7323 169.926 86.8613 175.482 89.9799 181.065C94.7484 189.601 108.282 198.5 117.378 192.028C122.203 188.595 125.011 187.136 125.816 180.66C126.137 178.071 127.807 175.184 127.965 172.706C128.138 170.011 128.367 167.277 128.73 164.57C129.535 158.573 128.711 152.769 129.562 146.889C130.299 141.802 127.792 139.084 122.979 139.46C118.155 139.837 113.336 138.81 108.321 139.593C102.447 140.509 96.659 140.694 90.8441 141.601C87.4875 142.124 84.2789 143.877 81.2499 144.533C77.8097 145.279 74.0586 150.036 79.5617 151.099C83.8754 151.932 87.8999 151.393 92.3041 151.983C97.0868 152.625 103.844 152.747 108.488 150.895C112.547 149.276 116.774 147.133 121.003 146.23C122.611 145.887 128.386 142.922 128.868 141.413" stroke="black" stroke-width="3" stroke-linecap="round"/>
<path d="M107.783 194.961C108.966 202.542 111.502 209.592 112.684 217.172C114.07 226.057 114.767 235.129 116.138 243.916C117.128 250.262 117.387 256.524 118.389 262.95C118.735 265.17 119.081 267.389 119.428 269.609C119.651 271.043 125.675 270.303 125.8 269.293C126.139 266.564 125.471 262.325 125.046 259.598C124.57 256.549 124.88 253.933 124.398 250.844C123.38 244.315 122.361 237.786 121.343 231.258C119.455 219.155 116.16 207.24 114.31 195.379" stroke="black" stroke-width="3" stroke-linecap="round"/>
<path d="M118.016 265.162C116.097 265.585 112.748 269.79 111.047 271.115C108.496 273.103 105.328 274.566 103.782 277.474C101.28 282.178 106.391 282.053 109.798 281.521C114.108 280.849 118.417 280.177 122.726 279.505C126.328 278.943 129.132 278.138 132.359 276.566C133.677 275.924 141.735 275.12 141.713 274.389C141.514 267.866 131.021 265.975 126.427 263.85" stroke="black" stroke-width="3" stroke-linecap="round"/>
<path d="M79.4012 155.804C77.9704 155.883 76.8462 155.119 75.5211 154.806C73.5701 154.345 71.759 154.046 69.7584 153.678C65.949 152.977 60.4374 155.286 57.6819 158.013C53.7224 161.932 53.9527 166.748 54.7645 171.952C55.7227 178.095 58.2961 184.033 59.7305 190.035C60.1954 191.981 61.1761 193.848 62.0849 195.608C62.7349 196.868 63.8935 199.366 65.1788 200.029C67.9176 201.442 72.2914 202.27 74.8401 200.007C80.9504 194.581 85.9694 184.631 87.3177 176.633" stroke="black" stroke-width="3" stroke-linecap="round"/>
<path d="M80.4083 164.982C77.59 165.088 74.5008 162.648 71.856 161.837C69.4279 161.093 67.4466 162.89 65.6236 163.894C63.2008 165.228 64.5479 169.389 64.8638 171.414C65.5056 175.528 66.5506 179.508 67.1877 183.592C67.4755 185.437 70.0805 189.507 72.5699 188.174C75.4737 186.62 77.051 183.855 77.9515 180.664C78.4064 179.052 79.0959 176.39 80.3058 175.205C81.2048 174.324 81.1503 172.943 81.6888 171.83C82.4666 170.224 83.0929 168.872 83.7602 167.429" stroke="black" stroke-width="3" stroke-linecap="round"/>
<path d="M130.617 147.704C132.004 147.343 132.843 146.273 134.009 145.571C135.727 144.538 137.361 143.702 139.155 142.742C142.57 140.914 148.522 141.435 151.978 143.193C156.943 145.719 158.19 150.377 159.002 155.581C159.96 161.724 159.318 168.164 159.779 174.317C159.929 176.312 159.564 178.389 159.234 180.343C158.999 181.74 158.656 184.472 157.634 185.496C155.455 187.676 151.542 189.796 148.425 188.417C140.952 185.111 133.141 177.161 129.421 169.954" stroke="black" stroke-width="3" stroke-linecap="round"/>
<path d="M132.453 156.752C135.17 155.994 137.369 152.729 139.642 151.152C141.728 149.703 144.162 150.811 146.204 151.212C148.918 151.746 148.903 156.119 149.219 158.144C149.86 162.258 150.077 166.367 150.714 170.451C151.002 172.296 149.76 176.966 146.983 176.455C143.744 175.859 141.399 173.706 139.57 170.94C138.645 169.543 137.178 167.218 135.665 166.458C134.54 165.893 134.171 164.56 133.32 163.665C132.089 162.371 131.081 161.274 130.006 160.104" stroke="black" stroke-width="3" stroke-linecap="round"/>
<path d="M67.8848 121.21C65.8624 120.081 63.9072 119.272 62.0001 118" stroke="#5768FF" stroke-width="3" stroke-linecap="round"/>
<path d="M95.7051 102.074C95.0592 98.8653 95.1106 95.2676 95.0747 92.0001" stroke="#5768FF" stroke-width="3" stroke-linecap="round"/>
<path d="M129 108.885C130.052 106.886 131.126 105.195 131.675 103" stroke="#5768FF" stroke-width="3" stroke-linecap="round"/>
<path d="M98.5371 175.545C98.5371 176.49 99.3507 177.566 99.7801 178.377C100.112 179.004 101.316 180.125 101.936 180.469C103.856 181.536 105.643 181.917 107.883 181.917" stroke="black" stroke-width="3" stroke-linecap="round"/>
</svg>
