<svg width="304" height="100" viewBox="0 0 304 100" fill="none" xmlns="http://www.w3.org/2000/svg">
<g clip-path="url(#clip0_51_43)">
<rect width="304" height="100" fill="white"/>
<path d="M0 80C1.71234 78.531 3.67952 78.401 5.89518 78.785C9.88832 79.4771 13.6668 79.1099 17.6457 78.2535C25.2609 76.6144 32.8637 74.5333 40.3103 72.3304C43.6377 71.3461 47.4896 70.432 50.9853 70.432C57.6596 70.432 63.8203 66.8139 70.5828 66.3694C88.2968 65.2049 105.833 66.9973 123.321 68.9133C138.427 70.5683 154.757 74.743 169.925 71.4571C176.69 69.9916 184.134 69.6872 191.036 68.9133C197.378 68.202 203.613 67.0518 210.075 67.7363C215.534 68.3144 221.205 70.0069 226.725 70.9636C229.892 71.5124 233.355 72.1385 236.564 72.4443C239.321 72.7071 241.575 73.9136 244.331 74.3807C257.53 76.6174 270.886 76.5829 284.283 76.5829C290.927 76.5829 297.688 76.9141 304 78.6331" stroke="black" stroke-width="3" stroke-linecap="round"/>
<path d="M116.574 16C115.793 16 115.011 16 114.23 16C113.729 16 113.315 16.1173 112.826 16.1925C112.443 16.2514 112.074 16 111.682 16C109.74 16 108.081 16.8727 106.28 17.4269C105.076 17.7975 101.286 18.4294 101.286 20.0315C101.286 22.6583 100.717 25.4116 101.184 28.0266C101.439 29.4569 101.286 31.0144 101.286 32.4658C101.286 34.2851 101.649 36.1285 101.943 37.9243C102.501 41.3361 102.917 44.9431 102.917 48.4221C102.917 49.8351 103.081 51.2038 103.121 52.6008C103.133 53.0294 103.151 55.2538 103.37 55.4999C103.715 55.8879 106.911 52.0799 107.503 52.0799C108.17 52.0799 107.982 51.0944 108.466 50.6983C108.765 50.4538 109.33 50.5537 109.553 50.2C109.901 49.6471 109.835 48.9221 110.244 48.3088C110.992 47.1869 112.023 49.2347 112.09 46.8706C112.1 46.5058 112.082 44.7643 112.712 44.7643C113.174 44.7643 113.59 45.1008 114.083 44.9002C114.915 44.5611 114.464 43.4562 114.875 42.9071C115.362 42.2587 116.148 42.6829 116.767 42.4767C117.191 42.3351 117.598 40.8908 117.956 40.5063C118.4 40.0287 118.557 40.1202 119.122 40.2458C119.812 40.3991 120.926 38.9984 121.512 38.6717C122.326 38.2173 123.309 38.0367 124.116 37.5619C124.347 37.4263 124.46 37.0246 124.569 36.7918C124.726 36.4582 124.063 36.583 123.81 36.486C122.53 35.9937 121.699 35.0224 120.945 33.9267C120.18 32.8131 120.625 31.5477 120.198 30.3142C120.06 29.9168 119.502 29.9455 119.326 29.4535C119.159 28.9852 118.954 28.5689 118.862 28.0719C118.702 27.2144 118.876 26.4291 118.295 25.6825C117.701 24.9187 117.04 23.8366 116.687 22.9306C116.314 21.9714 116.37 21.0612 116.37 20.0315C116.37 19.5314 115.77 16.8036 115.555 17.0192" stroke="#5768FF" stroke-width="3" stroke-linecap="round"/>
<path d="M145 3.63073C145.201 5.64218 146.754 7.34898 147.956 8.81736C148.911 9.98448 149.862 11.009 150.719 12.294C151.268 13.1183 152.561 12.8458 153.312 13.3019C154.137 13.8024 154.33 14.1806 154.682 14.9552C154.942 15.5257 154.978 18.2381 156.211 17.7977C158.592 16.9474 160.549 14.625 163.04 14.2418C164.988 13.9421 166.717 14.346 168.646 13.7322C170.674 13.0867 172.385 11.4403 174.455 10.9803C175.011 10.8568 174.927 10.632 175.327 10.3122C175.652 10.052 176.224 9.89065 176.482 9.63272C177.074 9.04092 176.543 6.61662 176.346 5.87298C176.024 4.65569 175.984 3.42565 175.984 2.15854C175.984 1.91069 174.707 2.20384 174.263 2.20384C173.393 2.20384 172.587 2 171.703 2C169.952 2 168.2 2 166.449 2C162.532 2 158.735 2.40768 154.83 2.40768C153.355 2.40768 150.948 1.65538 149.53 2.45298C148.8 2.86325 146.525 2.11301 146.223 3.01921" stroke="#5768FF" stroke-width="3" stroke-linecap="round"/>
<path d="M208.241 24C207.662 24.0643 207.23 24.6115 206.61 24.6115C206.22 24.6115 205.446 24.5887 205.183 24.9173C204.428 25.8612 203.183 26.1632 202.137 26.7519C201.533 27.0916 200.952 27.1927 200.291 26.8991C199.584 26.5851 198.793 27.1921 198.264 27.5559C197.149 28.3225 195.81 28.8716 194.572 29.4131C193.687 29.8003 193.339 29.2999 192.443 29.2999C191.886 29.2999 191.749 29.6542 191.322 29.7076C190.247 29.8419 192.188 32.3181 192.432 32.5613C193.496 33.6255 194.379 34.0926 194.379 35.6643C194.379 36.5262 194.073 37.4535 195.183 37.4535C196.262 37.4535 196.849 38.1721 197.437 39.039C198.65 40.8265 200.489 41.8902 201.808 43.5688C202.444 44.3783 203.075 45.6362 203.462 46.5811C203.823 47.4649 203.665 49.3236 204.379 49.9784C204.721 50.2923 205.169 50.2627 205.545 50.4994C205.935 50.7447 206.23 51.1634 206.565 51.4733C207.13 51.9966 208.157 52.6886 208.852 53.0361C209.349 53.2846 209.908 53.9327 210.483 53.9647C211.103 53.9991 211.085 52.4028 211.185 51.9149C211.555 50.116 211.298 48.0651 211.298 46.23C211.298 44.6635 211.298 43.0969 211.298 41.5304C211.298 38.9484 211.298 36.3664 211.298 33.7844C211.298 32.7149 211.532 24 210.483 24" stroke="#5768FF" stroke-width="3" stroke-linecap="round"/>
<path d="M157.338 45.9839C156.477 45.9839 155.995 47.0183 155.197 47.1956C154.544 47.3408 153.793 47.7427 153.465 48.3167C153.161 48.8481 152.709 49.3607 152.491 50.0154C152.246 50.7502 152.256 51.5914 151.879 52.303C151.579 52.8699 150.632 52.7383 150.203 53.2203C149.969 53.4839 149.628 53.5509 149.388 53.8205C149.151 54.0871 149.287 54.647 148.878 54.7377C148.045 54.9228 148.186 56.0291 147.474 56.1873C146.818 56.3331 145.848 57.1071 145.322 57.5009C144.23 58.3202 143.074 58.878 142.095 59.8904C141.209 60.8067 140.311 61.6316 139.4 62.495C138.774 63.0875 134.827 65.3774 136.093 66.4133C136.776 66.9718 137.864 66.7757 138.686 66.7757C139.761 66.7757 140.435 67.1593 141.461 67.3872C144.701 68.1074 148.029 68.1897 151.336 68.4178C153.07 68.5373 154.736 68.7545 156.477 68.4517C158.123 68.1655 159.993 67.9677 161.573 67.3872C163.852 66.55 166.218 65.7565 168.651 65.7565C169.392 65.7565 167.829 64.7514 167.688 64.5334C167.511 64.2587 167.112 64.1958 166.828 64.1144C166.709 64.0806 166.599 63.4065 166.556 63.2651C166.173 62.0221 166.005 60.9625 165.446 59.8451C165.105 59.163 164.04 58.87 163.872 58.1124C163.696 57.3224 163.009 56.7037 162.649 55.9834C162.084 54.8528 161.287 53.8128 160.509 52.8126C160.163 52.3686 159.786 51.4876 159.172 51.4876C158.157 51.4876 158.279 51.4384 157.995 50.5137C157.611 49.2661 158.553 48.006 157.949 46.7993" stroke="#5768FF" stroke-width="3" stroke-linecap="round"/>
</g>
<defs>
<clipPath id="clip0_51_43">
<rect width="304" height="100" fill="white"/>
</clipPath>
</defs>
</svg>
