<svg width="308" height="368" viewBox="0 0 308 368" fill="none" xmlns="http://www.w3.org/2000/svg">
<rect width="308" height="368" fill="white"/>
<path d="M179.392 194.493C178.283 195.464 173.063 187.873 172.227 186.202C170.812 183.372 180.7 186.781 182.156 188.965" stroke="black" stroke-width="3" stroke-linecap="round"/>
<path d="M177.549 276.485C173.91 275.575 178.471 247.139 178.471 243.115C178.471 233.781 178.22 224.442 179.443 215.272C180.619 206.454 185.199 195.312 192.29 189.682C196.444 186.383 200.566 182.499 205.187 179.957C207.194 178.854 209.198 177.299 211.534 177.04C214.292 176.733 215.909 174.746 218.494 174.276C226.884 172.751 230.787 174.787 233.746 182.926C236.931 191.684 235.589 202.466 235.589 211.792C235.589 222.842 234.668 233.729 234.668 244.701C234.668 248.669 236.556 264.486 232.825 266.351" stroke="black" stroke-width="3" stroke-linecap="round"/>
<path d="M223.612 173.303C219.359 169.522 207.233 175.033 203.345 177.193C197.375 180.51 191.754 185.308 186.813 189.426C183.238 192.405 165.625 164.947 170.896 158.359C176.436 151.433 179.911 145.444 189.526 142.697C198.761 140.059 207.922 139.217 217.573 139.217C225.997 139.217 231.904 143.02 231.904 151.705C231.904 158.871 227.297 165.216 227.297 172.382" stroke="#5768FF" stroke-width="3" stroke-linecap="round"/>
<path d="M172.943 152.114C171.346 153.512 172.022 146.017 172.022 144.949C172.022 140.643 169.736 128.042 171.305 132.051C172.675 135.554 175.989 137.781 177.754 141.059C178.367 142.198 181.098 148.702 182.155 146.587" stroke="black" stroke-width="3" stroke-linecap="round"/>
<path d="M192.29 139.217C194.673 136.569 193.272 128.285 195.975 126.933C196.43 126.706 200.843 136.976 201.503 138.296" stroke="black" stroke-width="3" stroke-linecap="round"/>
<path d="M215.321 139.217C217.532 136.515 218.394 132.097 219.723 128.878C220.047 128.093 222.875 120.096 223.152 120.484C226.515 125.192 224.534 137.68 224.534 141.98" stroke="black" stroke-width="3" stroke-linecap="round"/>
<path d="M183.077 190.808C180.945 194.835 177.408 198.511 176.68 203.245C176.046 207.363 173.949 213.651 170.896 216.398C169.004 218.101 153.879 210.379 152.5 209C149.648 206.148 144.844 204 141 204C131.114 204 148.669 218.669 151 221C157.724 227.724 168.788 239.935 176.628 245.162" stroke="#5768FF" stroke-width="3" stroke-linecap="round"/>
<path d="M156.36 228.579C150.223 234.716 144.289 241.825 137.423 247.056C133.499 250.046 130.743 253.472 127.597 256.934C127.029 257.558 124.59 260.795 124.116 260.823C117.576 261.208 114.845 255.414 109.427 253.044C106.777 251.884 104.244 250.417 101.801 248.847C97.9172 246.35 93.6328 244.461 90.0296 241.682C80.5692 234.383 72.5661 225.225 62.5965 218.445C60.7778 217.209 59.3275 215.65 57.3248 214.76C52.8146 212.756 55.8302 212.166 58.2973 210.052C73.0267 197.426 86.5179 182.793 99.6517 168.595C114.636 152.396 131.809 136.429 148.99 122.429C158.43 114.738 169.662 107.943 177.601 98.6813C179.452 96.5215 181.96 94.9862 183.794 92.949C185.312 91.2619 185.935 92.0936 188.605 93.3584C197.002 97.3363 205.442 101.789 214.502 104.26C223.779 106.79 231.564 112.423 240.912 114.547C244.283 115.314 247.422 117.228 250.79 117.977C254.285 118.753 250.423 120.615 248.947 122.583C245.201 127.578 240.323 133.032 237.227 138.296C236.659 139.261 230.294 144.36 229.14 144.744" stroke="black" stroke-width="3" stroke-linecap="round"/>
<path d="M115.825 202.784C116.437 205.537 122.122 209.081 124.117 211.076C126.174 213.133 128.853 215.883 130.361 218.446C131.847 220.973 134.093 222.005 136.298 223.768C138.06 225.178 144.38 216.608 145.306 215.682" stroke="black" stroke-width="3" stroke-linecap="round"/>
<path d="M115.825 199.099C119.718 195.206 123.915 191.931 127.802 188.044C130.802 185.044 135.866 182.454 137.935 178.831C140.998 173.471 147.953 170.982 151.038 165.934C154.238 160.698 158.547 164.462 160.967 168.697C161.853 170.248 165.299 173.129 166.904 174.02C169.132 175.258 170.309 178.04 172.022 179.753" stroke="black" stroke-width="3" stroke-linecap="round"/>
<path d="M151.754 208.312C154.128 204.092 159.51 200.487 163.218 197.308C165.826 195.073 168.123 191.375 171.1 189.887" stroke="black" stroke-width="3" stroke-linecap="round"/>
<path d="M113.062 196.336C113.062 198.994 113.062 196.082 113.062 195.261C113.062 191.393 113.371 187.695 113.778 183.848C114.325 178.686 113.154 168.098 115.825 164.092" stroke="black" stroke-width="3" stroke-linecap="round"/>
<path d="M151.754 161.327C151.754 170.28 154.518 125.657 154.518 134.61" stroke="black" stroke-width="3" stroke-linecap="round"/>
<path d="M117.668 160.406C120.157 160.095 124.915 154.758 126.829 153.036C130.709 149.544 134.665 146.221 138.857 143.107C141.646 141.035 144.222 138.458 146.688 135.992C147.687 134.993 151.24 131.847 150.833 131.847" stroke="black" stroke-width="3" stroke-linecap="round"/>
<path d="M125.037 199.1C125.726 205.297 134.482 207.856 137.014 212.919" stroke="black" stroke-width="3" stroke-linecap="round"/>
<path d="M125.959 197.257C128.239 197.004 130.133 193.895 131.998 192.651C135.099 190.584 137.17 187.888 139.778 185.281C143.269 181.789 146.525 176.414 150.833 174.021C153.721 172.417 154.915 169.563 157.333 172.383C160.033 175.533 165.183 179.503 166.494 183.438" stroke="black" stroke-width="3" stroke-linecap="round"/>
<path d="M137.936 211.996C141.82 205.392 150.363 198.682 156.361 193.775C159.411 191.28 164.797 185.912 166.495 182.516" stroke="black" stroke-width="3" stroke-linecap="round"/>
<path d="M128.723 201.863C131.584 199.002 134.6 196.542 137.731 193.981C140.519 191.7 144.725 189.079 146.738 186.15C149.739 181.786 155.014 179.683 157.282 175.146" stroke="black" stroke-width="3" stroke-linecap="round"/>
<path d="M135.172 205.548C139.321 198.079 147.654 193.858 153.136 187.532C155.022 185.357 160.967 180.581 160.967 177.91" stroke="black" stroke-width="3" stroke-linecap="round"/>
<path d="M128.723 197.256C133.105 198.132 134.995 204.538 138.857 206.468" stroke="black" stroke-width="3" stroke-linecap="round"/>
<path d="M135.172 193.571C138.465 195.401 140.461 198.69 143.463 200.941" stroke="black" stroke-width="3" stroke-linecap="round"/>
<path d="M141.62 188.044C144.165 190.73 146.592 193.537 148.99 196.335" stroke="black" stroke-width="3" stroke-linecap="round"/>
<path d="M146.227 182.516C150.221 184.206 152.171 188.192 155.439 190.807" stroke="black" stroke-width="3" stroke-linecap="round"/>
<path d="M153.597 174.225C155.454 178.785 160.75 181.649 161.888 186.201" stroke="black" stroke-width="3" stroke-linecap="round"/>
<path d="M120.431 165.933C117.268 169.491 120.431 176.961 120.431 181.134C120.431 182.269 119.845 184.483 120.431 184.154C122.542 182.966 125.076 181.376 126.88 179.752C133.07 174.181 146.226 170.855 146.226 160.815C146.226 156.103 146.968 151.962 147.148 147.303C147.159 147.003 148.597 141.8 147.557 142.543C145.484 144.024 144.863 147.5 142.541 148.429C140.933 149.073 138.368 151.757 137.014 153.035C135.17 154.777 133.613 154.996 131.486 156.004C127.091 158.086 123.103 161.004 120.431 165.012" stroke="#5768FF" stroke-width="3" stroke-linecap="round"/>
</svg>
