<svg width="304" height="100" viewBox="0 0 304 100" fill="none" xmlns="http://www.w3.org/2000/svg">
<g clip-path="url(#clip0_49_3)">
<rect width="304" height="100" fill="white"/>
<path d="M0 80C1.71234 78.531 3.67952 78.401 5.89518 78.785C9.88832 79.4771 13.6668 79.1099 17.6457 78.2535C25.2609 76.6144 32.8637 74.5333 40.3103 72.3304C43.6377 71.3461 47.4896 70.432 50.9853 70.432C57.6596 70.432 63.8203 66.8139 70.5828 66.3694C88.2968 65.2049 105.833 66.9973 123.321 68.9133C138.427 70.5683 154.757 74.743 169.925 71.4571C176.69 69.9916 184.134 69.6872 191.036 68.9133C197.378 68.202 203.613 67.0518 210.075 67.7363C215.534 68.3144 221.205 70.0069 226.725 70.9636C229.892 71.5124 233.355 72.1385 236.564 72.4443C239.321 72.7071 241.575 73.9136 244.331 74.3807C257.53 76.6174 270.886 76.5829 284.283 76.5829C290.927 76.5829 297.688 76.9141 304 78.6331" stroke="black" stroke-width="3" stroke-linecap="round"/>
<path d="M135.86 23.9023C135.386 23.9617 137.311 61.7949 137.311 67.4371" stroke="#5768FF" stroke-width="3" stroke-linecap="round"/>
<path d="M136.586 22.4512C137.14 20.2335 159.177 21.7256 162.384 21.7256C169.469 21.7256 176.591 21 183.748 21" stroke="#5768FF" stroke-width="3" stroke-linecap="round"/>
<path d="M185.2 21.7256C183.895 21.8887 187.376 60.8267 187.376 66.7116" stroke="#5768FF" stroke-width="3" stroke-linecap="round"/>
<path d="M137.311 68.8885C142.188 68.8885 146.434 71.0653 151.097 71.0653C154.669 71.0653 160.882 72.3602 164.158 70.904C167.632 69.36 171.571 69.2588 175.203 68.0017C177.692 67.1399 182.99 65.9642 185.2 67.4374" stroke="#5768FF" stroke-width="3" stroke-linecap="round"/>
</g>
<defs>
<clipPath id="clip0_49_3">
<rect width="304" height="100" fill="white"/>
</clipPath>
</defs>
</svg>
