<svg width="308" height="240" viewBox="0 0 308 240" fill="none" xmlns="http://www.w3.org/2000/svg">
<rect width="308" height="240" fill="white"/>
<path d="M145.649 187.463C144.774 188.993 145.151 184.917 145.151 184.394C145.151 180.607 145.151 176.819 145.151 173.031C145.151 164.591 145.329 155.364 147.667 147.182C150.72 136.496 154.589 127.002 160.246 117.407C164.265 110.59 166.95 103.605 172.77 97.9433C177.084 93.7455 183.957 91.5941 189.413 89.207C195.096 86.7206 203.086 86.6608 209.07 88.0458C216.204 89.6973 223.965 90.0132 230.219 94.1281C236.999 98.5885 240.922 105.275 244.9 112.264C252.438 125.51 254.729 141.886 256.124 156.886C256.969 165.963 255.603 175.147 250.65 182.929C249.205 185.201 247.518 186.625 244.679 186.468C241.248 186.277 238.809 179.896 237.739 177.289C233.651 167.324 234.229 155.551 235.279 145.053C235.79 139.945 236.716 134.881 236.716 129.709C236.716 124.417 235.094 119.63 233.731 114.587C232.648 110.581 230.331 104.795 227.482 101.676C224.753 98.6862 220.659 97.209 218.083 94.294C212.135 87.5635 204.252 90.1363 196.518 88.8199C190.697 87.8292 182.731 88.6737 178.382 93.0222C173.449 97.9557 168.98 103.075 166.328 109.583C162.535 118.892 162.367 130.301 163.315 140.16C163.862 145.847 164.767 163.846 173.516 163.051C177.701 162.671 179.758 157.809 180.594 154.398C181.969 148.787 181.553 142.62 180.704 136.925C179.926 131.697 179.438 126.467 178.465 121.277C177.861 118.056 176.267 115.037 175.617 111.932C175.266 110.252 174.512 107.81 174.512 106.127C174.512 104.285 173.019 102.831 173.019 100.984C173.019 99.1613 173.474 94.9105 175.23 93.9069C178.659 91.9479 182.998 90.2763 186.953 88.9582C189.572 88.0849 191.609 87.4376 194.417 87.4376C198.266 87.4376 202.062 88.8674 205.973 88.9305C210.367 89.0014 214.634 90.1484 219.023 90.4511C222.291 90.6765 226.176 91.7142 229.362 90.534C235.483 88.2673 236.633 79.8572 237.822 74.3884C238.651 70.5743 240.2 66.7393 240.2 62.8045C240.2 59.5698 240.2 56.3352 240.2 53.1005C240.2 50.5478 239.602 46.4526 238.209 44.2536C236.469 41.5055 234.028 41.0526 231.242 39.9131C224.696 37.2349 216.456 38.1331 209.595 38.6414C206.207 38.8924 201.97 38.4612 198.785 39.6643C196.069 40.6906 193.064 41.1546 190.187 41.6549C184.967 42.5627 180.145 43.4755 176.723 47.8753C171.75 54.27 172.997 65.6991 175.396 72.8955C177.313 78.6446 178.097 84.8542 181.479 89.9258" stroke="#5768FF" stroke-width="3" stroke-linecap="round"/>
<path d="M177 47.6279C180.193 40.1769 179.986 15.3859 179.986 23.4924C179.986 26.7687 181.742 30.616 182.474 33.8046C182.768 35.0826 184.544 43.4879 184.962 42.6515" stroke="black" stroke-width="3" stroke-linecap="round"/>
<path d="M200.389 38.1719C200.713 39.7952 201.865 35.1924 202.352 33.6103C202.547 32.9736 203.423 26.12 204.093 26.3116C204.916 26.5466 206.198 37.703 206.36 39.1672" stroke="black" stroke-width="3" stroke-linecap="round"/>
<path d="M219.797 37.6749C219.895 38.457 222.998 30.6569 223.28 29.6574C223.584 28.5803 226.813 16 227.759 16C228.22 16 227.759 16.9216 227.759 17.3823C227.759 20.0476 228.155 22.682 228.229 25.3445C228.353 29.7978 229.252 43.1252 229.252 38.6702" stroke="black" stroke-width="3" stroke-linecap="round"/>
<path d="M226.763 65.543C226.763 71.0074 221.277 76.491 215.815 76.491" stroke="black" stroke-width="3" stroke-linecap="round"/>
<path d="M181.104 55.6671C184.437 55.8523 187.61 55.3405 190.956 54.9687C191.778 54.8775 192.494 54.5243 193.331 54.5243C194.105 54.5243 194.775 54.4516 195.502 54.1688C195.853 54.0323 196.873 53.4618 196.873 54.1815C196.873 55.0237 196.873 55.866 196.873 56.7082C196.873 60.5586 195.179 62.2948 191.502 62.2948C190.16 62.2948 189.031 62.0103 188.303 60.7966C187.93 60.1749 186.368 56.9199 187.046 56.5812" stroke="black" stroke-width="3" stroke-linecap="round"/>
<path d="M203.893 54.2289C207.186 54.7831 210.396 54.6267 213.763 54.6287C214.589 54.6292 215.341 54.3578 216.171 54.4507C216.941 54.5366 217.615 54.5387 218.369 54.3384C218.733 54.2417 219.81 53.788 219.73 54.5032C219.637 55.3402 219.543 56.1772 219.45 57.0143C219.022 60.8409 217.146 62.3783 213.492 61.9701C212.158 61.8211 211.067 61.413 210.478 60.1259C210.177 59.4667 208.986 56.0585 209.697 55.7971" stroke="black" stroke-width="3" stroke-linecap="round"/>
<path d="M77.2181 86.9061C76.2152 86.0794 76.724 85.1878 77.0759 86.2502C77.5892 87.7996 78.6999 89.0287 79.1824 90.5486C80.2201 93.8175 80.9663 96.8509 82.3036 100.074C84.7323 105.926 86.8613 111.482 89.9799 117.065C94.7484 125.601 108.282 134.5 117.378 128.028C122.203 124.595 125.011 123.136 125.816 116.66C126.137 114.071 127.807 111.184 127.965 108.706C128.138 106.011 128.367 103.277 128.73 100.57C129.535 94.5731 128.711 88.769 129.562 82.8892C130.299 77.8021 127.792 75.084 122.979 75.4601C118.155 75.8369 113.336 74.8103 108.321 75.5926C102.447 76.5089 96.659 76.6938 90.8441 77.6009C87.4875 78.1244 84.2789 79.8767 81.2499 80.5334C77.8097 81.2793 74.0586 86.036 79.5617 87.099C83.8754 87.9322 87.8999 87.3926 92.3041 87.9832C97.0868 88.6246 103.844 88.7465 108.488 86.8946C112.547 85.2761 116.774 83.1326 121.003 82.23C122.611 81.8869 128.386 78.9216 128.868 77.4133" stroke="black" stroke-width="3" stroke-linecap="round"/>
<path d="M107.783 130.961C108.966 138.542 111.502 145.592 112.684 153.172C114.07 162.057 114.767 171.129 116.138 179.916C117.128 186.262 117.387 192.524 118.389 198.95C118.735 201.17 119.081 203.389 119.428 205.609C119.651 207.043 125.675 206.303 125.8 205.293C126.139 202.564 125.471 198.325 125.046 195.598C124.57 192.549 124.88 189.933 124.398 186.844C123.38 180.315 122.361 173.786 121.343 167.258C119.455 155.155 116.16 143.24 114.31 131.379" stroke="black" stroke-width="3" stroke-linecap="round"/>
<path d="M118.016 201.162C116.097 201.585 112.748 205.79 111.047 207.115C108.496 209.103 105.328 210.566 103.782 213.474C101.28 218.178 106.391 218.053 109.798 217.521C114.108 216.849 118.417 216.177 122.726 215.505C126.328 214.943 129.132 214.138 132.359 212.566C133.677 211.924 141.735 211.12 141.713 210.389C141.514 203.866 131.021 201.975 126.427 199.85" stroke="black" stroke-width="3" stroke-linecap="round"/>
<path d="M79.4012 91.8038C77.9704 91.8827 76.8462 91.1194 75.5211 90.8061C73.5701 90.3449 71.759 90.0459 69.7584 89.6778C65.949 88.977 60.4374 91.286 57.6819 94.0132C53.7224 97.9319 53.9527 102.748 54.7645 107.952C55.7227 114.095 58.2961 120.033 59.7305 126.035C60.1954 127.981 61.1761 129.848 62.0849 131.608C62.7349 132.868 63.8935 135.366 65.1788 136.029C67.9176 137.442 72.2914 138.27 74.8401 136.007C80.9504 130.581 85.9694 120.631 87.3177 112.633" stroke="black" stroke-width="3" stroke-linecap="round"/>
<path d="M80.4083 100.982C77.59 101.088 74.5008 98.6479 71.856 97.8373C69.4279 97.0931 67.4466 98.8896 65.6236 99.8938C63.2008 101.228 64.5479 105.389 64.8638 107.414C65.5056 111.528 66.5506 115.508 67.1877 119.592C67.4755 121.437 70.0805 125.507 72.5699 124.174C75.4737 122.62 77.051 119.855 77.9515 116.664C78.4064 115.052 79.0959 112.39 80.3058 111.205C81.2048 110.324 81.1503 108.943 81.6888 107.83C82.4666 106.224 83.0929 104.872 83.7602 103.429" stroke="black" stroke-width="3" stroke-linecap="round"/>
<path d="M130.617 83.7035C132.004 83.3429 132.843 82.2735 134.009 81.5715C135.727 80.538 137.361 79.7015 139.155 78.7416C142.57 76.9139 148.522 77.4345 151.978 79.1929C156.943 81.7195 158.19 86.3768 159.002 91.5807C159.96 97.7236 159.318 104.164 159.779 110.317C159.929 112.312 159.564 114.389 159.234 116.343C158.999 117.74 158.656 120.472 157.634 121.496C155.455 123.676 151.542 125.796 148.425 124.417C140.952 121.111 133.141 113.161 129.421 105.954" stroke="black" stroke-width="3" stroke-linecap="round"/>
<path d="M132.453 92.7516C135.17 91.9943 137.369 88.7292 139.642 87.1515C141.728 85.7032 144.162 86.8109 146.204 87.2122C148.918 87.7455 148.903 92.1191 149.219 94.1438C149.86 98.2581 150.077 102.367 150.714 106.451C151.002 108.296 149.76 112.966 146.983 112.455C143.744 111.859 141.399 109.706 139.57 106.94C138.645 105.543 137.178 103.218 135.665 102.458C134.54 101.893 134.171 100.56 133.32 99.6647C132.089 98.3711 131.081 97.2744 130.006 96.1035" stroke="black" stroke-width="3" stroke-linecap="round"/>
<path d="M67.8848 57.21C65.8624 56.0812 63.9072 55.2716 62.0001 54.0001" stroke="#5768FF" stroke-width="3" stroke-linecap="round"/>
<path d="M95.7051 38.0742C95.0592 34.8653 95.1106 31.2676 95.0747 28.0001" stroke="#5768FF" stroke-width="3" stroke-linecap="round"/>
<path d="M129 44.8848C130.052 42.8861 131.126 41.1952 131.675 39.0001" stroke="#5768FF" stroke-width="3" stroke-linecap="round"/>
<path d="M98.5371 111.545C98.5371 112.49 99.3507 113.566 99.7801 114.377C100.112 115.004 101.316 116.125 101.936 116.469C103.856 117.536 105.643 117.917 107.883 117.917" stroke="black" stroke-width="3" stroke-linecap="round"/>
</svg>
