<svg width="308" height="200" viewBox="0 0 308 200" fill="none" xmlns="http://www.w3.org/2000/svg">
<rect width="308" height="200" fill="white"/>
<path d="M99.556 180.674C98.7156 182.135 99.0775 178.242 99.0775 177.743C99.0775 174.126 99.0775 170.508 99.0775 166.891C99.0775 158.83 99.2488 150.017 101.496 142.202C104.432 131.997 108.152 122.929 113.591 113.765C117.455 107.254 120.037 100.584 125.632 95.1758C129.781 91.1665 136.389 89.1118 141.635 86.832C147.099 84.4573 154.781 84.4001 160.534 85.723C167.394 87.3003 174.855 87.602 180.869 91.532C187.388 95.792 191.159 102.178 194.984 108.853C202.232 121.504 204.434 137.144 205.776 151.47C206.588 160.139 205.274 168.911 200.513 176.344C199.123 178.513 197.502 179.874 194.771 179.723C191.473 179.541 189.128 173.447 188.099 170.957C184.168 161.44 184.724 150.196 185.733 140.169C186.225 135.29 187.116 130.454 187.116 125.515C187.116 120.46 185.555 115.889 184.245 111.071C183.204 107.246 180.976 101.72 178.237 98.7404C175.613 95.8853 171.676 94.4745 169.2 91.6904C163.481 85.2623 155.902 87.7195 148.466 86.4623C142.869 85.516 135.21 86.3227 131.029 90.4758C126.285 95.1876 121.988 100.077 119.439 106.292C115.792 115.184 115.63 126.08 116.542 135.496C117.067 140.928 117.938 158.118 126.35 157.359C130.373 156.995 132.351 152.352 133.155 149.094C134.477 143.735 134.077 137.845 133.261 132.406C132.513 127.413 132.044 122.418 131.108 117.461C130.528 114.385 128.995 111.501 128.37 108.537C128.032 106.932 127.307 104.599 127.307 102.992C127.307 101.233 125.872 99.8439 125.872 98.0803C125.872 96.3391 126.31 92.2792 127.998 91.3207C131.295 89.4497 135.467 87.8532 139.269 86.5943C141.788 85.7603 143.746 85.1421 146.446 85.1421C150.146 85.1421 153.796 86.5077 157.557 86.5679C161.782 86.6356 165.884 87.7311 170.103 88.0202C173.246 88.2354 176.981 89.2265 180.045 88.0994C185.929 85.9345 187.036 77.9022 188.179 72.6791C188.976 69.0364 190.465 65.3736 190.465 61.6156C190.465 58.5262 190.465 55.4369 190.465 52.3476C190.465 49.9095 189.89 45.9983 188.551 43.8981C186.878 41.2734 184.531 40.8409 181.853 39.7526C175.558 37.1947 167.636 38.0525 161.039 38.5379C157.781 38.7777 153.708 38.3658 150.646 39.5149C148.034 40.4951 145.145 40.9382 142.379 41.4161C137.36 42.2831 132.724 43.1549 129.434 47.3571C124.652 53.4645 125.851 64.3801 128.158 71.2532C130 76.7441 130.755 82.6747 134.006 87.5185" stroke="#5768FF" stroke-width="3" stroke-linecap="round"/>
<path d="M130 46C133.208 39.0538 133 15.9424 133 23.4996C133 26.554 134.764 30.1407 135.5 33.1132C135.795 34.3046 137.58 42.1405 138 41.3608" stroke="black" stroke-width="3" stroke-linecap="round"/>
<path d="M152 37.9939C152.326 39.6348 153.483 34.9818 153.972 33.3824C154.169 32.7387 155.049 25.8103 155.722 26.004C156.549 26.2415 157.837 37.5198 158 39" stroke="black" stroke-width="3" stroke-linecap="round"/>
<path d="M171 37.1518C171.093 37.915 174.047 30.3032 174.316 29.3278C174.605 28.2767 177.679 16 178.579 16C179.018 16 178.579 16.8993 178.579 17.349C178.579 19.9499 178.956 22.5207 179.026 25.119C179.144 29.4648 180 42.4705 180 38.1231" stroke="black" stroke-width="3" stroke-linecap="round"/>
<path d="M207 159C207 164.125 207.75 169 207.75 174.144C207.75 177.448 208 180.621 208 184" stroke="black" stroke-width="3" stroke-linecap="round"/>
<path d="M178 64C178 69.4904 172.487 75 167 75" stroke="black" stroke-width="3" stroke-linecap="round"/>
<path d="M133 54.7397C136.383 54.9147 139.602 54.4313 142.997 54.0801C143.83 53.9939 144.558 53.6604 145.406 53.6604C146.191 53.6604 146.871 53.5917 147.609 53.3246C147.965 53.1956 149 52.6568 149 53.3366C149 54.1321 149 54.9276 149 55.7232C149 59.3601 147.281 61 143.551 61C142.189 61 141.043 60.7313 140.304 59.5848C139.926 58.9977 138.342 55.9231 139.029 55.6032" stroke="black" stroke-width="3" stroke-linecap="round"/>
<path d="M155.573 52.9851C158.74 53.5181 161.827 53.3677 165.065 53.3696C165.86 53.3701 166.582 53.1091 167.382 53.1983C168.122 53.281 168.77 53.283 169.495 53.0903C169.845 52.9973 170.881 52.561 170.804 53.2489C170.714 54.0539 170.624 54.8589 170.534 55.6639C170.123 59.3442 168.319 60.8228 164.804 60.4302C163.522 60.2869 162.473 59.8944 161.906 58.6566C161.616 58.0226 160.471 54.7447 161.155 54.4933" stroke="black" stroke-width="3" stroke-linecap="round"/>
</svg>
