<svg width="308" height="240" viewBox="0 0 308 240" fill="none" xmlns="http://www.w3.org/2000/svg">
<rect width="308" height="240" fill="white"/>
<path d="M179.392 130.493C178.283 131.464 173.063 123.873 172.227 122.202C170.812 119.372 180.7 122.781 182.156 124.965" stroke="black" stroke-width="3" stroke-linecap="round"/>
<path d="M177.549 212.485C173.91 211.575 178.471 183.139 178.471 179.115C178.471 169.781 178.22 160.442 179.443 151.272C180.619 142.454 185.199 131.312 192.29 125.682C196.444 122.383 200.566 118.499 205.187 115.957C207.194 114.854 209.198 113.299 211.534 113.04C214.292 112.733 215.909 110.746 218.494 110.276C226.884 108.751 230.787 110.787 233.746 118.926C236.931 127.684 235.589 138.466 235.589 147.792C235.589 158.842 234.668 169.729 234.668 180.701C234.668 184.669 236.556 200.486 232.825 202.351" stroke="black" stroke-width="3" stroke-linecap="round"/>
<path d="M223.612 109.303C219.359 105.522 207.233 111.033 203.345 113.193C197.375 116.51 191.754 121.308 186.813 125.426C183.238 128.405 165.625 100.947 170.896 94.3586C176.436 87.4333 179.911 81.444 189.526 78.6971C198.761 76.0585 207.922 75.2168 217.573 75.2168C225.997 75.2168 231.904 79.0196 231.904 87.705C231.904 94.8706 227.297 101.216 227.297 108.382" stroke="#5768FF" stroke-width="3" stroke-linecap="round"/>
<path d="M172.943 88.1145C171.346 89.5121 172.022 82.0169 172.022 80.9491C172.022 76.6433 169.736 64.0417 171.305 68.0515C172.675 71.5536 175.989 73.7809 177.754 77.0594C178.367 78.1975 181.098 84.7016 182.155 82.5869" stroke="black" stroke-width="3" stroke-linecap="round"/>
<path d="M192.29 75.2169C194.673 72.5695 193.272 64.2851 195.975 62.9334C196.43 62.706 200.843 72.976 201.503 74.2956" stroke="black" stroke-width="3" stroke-linecap="round"/>
<path d="M215.321 75.2167C217.532 72.5146 218.394 68.0971 219.723 64.8781C220.047 64.0925 222.875 56.0962 223.152 56.4844C226.515 61.1919 224.534 73.6796 224.534 77.9805" stroke="black" stroke-width="3" stroke-linecap="round"/>
<path d="M183.077 126.808C180.945 130.835 177.408 134.511 176.68 139.245C176.046 143.363 173.949 149.651 170.896 152.398C169.004 154.101 153.879 146.379 152.5 145C149.648 142.148 144.844 140 141 140C131.114 140 148.669 154.669 151 157C157.724 163.724 168.788 175.935 176.628 181.162" stroke="#5768FF" stroke-width="3" stroke-linecap="round"/>
<path d="M156.36 164.579C150.223 170.716 144.289 177.825 137.423 183.056C133.499 186.046 130.743 189.472 127.597 192.934C127.029 193.558 124.59 196.795 124.116 196.823C117.576 197.208 114.845 191.414 109.427 189.044C106.777 187.884 104.244 186.417 101.801 184.847C97.9172 182.35 93.6328 180.461 90.0296 177.682C80.5692 170.383 72.5661 161.225 62.5965 154.445C60.7778 153.209 59.3275 151.65 57.3248 150.76C52.8146 148.756 55.8302 148.166 58.2973 146.052C73.0267 133.426 86.5179 118.793 99.6517 104.595C114.636 88.396 131.809 72.4289 148.99 58.4294C158.43 50.7375 169.662 43.9434 177.601 34.6813C179.452 32.5215 181.96 30.9862 183.794 28.949C185.312 27.2619 185.935 28.0936 188.605 29.3584C197.002 33.3363 205.442 37.789 214.502 40.26C223.779 42.79 231.564 48.423 240.912 50.5474C244.283 51.3137 247.422 53.2282 250.79 53.9766C254.285 54.7533 250.423 56.6154 248.947 58.5829C245.201 63.5779 240.323 69.0323 237.227 74.2955C236.659 75.2615 230.294 80.3598 229.14 80.7444" stroke="black" stroke-width="3" stroke-linecap="round"/>
<path d="M115.825 138.784C116.437 141.537 122.122 145.081 124.117 147.076C126.174 149.133 128.853 151.883 130.361 154.446C131.847 156.973 134.093 158.005 136.298 159.768C138.06 161.178 144.38 152.608 145.306 151.682" stroke="black" stroke-width="3" stroke-linecap="round"/>
<path d="M115.825 135.099C119.718 131.206 123.915 127.931 127.802 124.044C130.802 121.044 135.866 118.454 137.935 114.831C140.998 109.471 147.953 106.982 151.038 101.934C154.238 96.6979 158.547 100.462 160.967 104.697C161.853 106.248 165.299 109.129 166.904 110.02C169.132 111.258 170.309 114.04 172.022 115.753" stroke="black" stroke-width="3" stroke-linecap="round"/>
<path d="M151.754 144.312C154.128 140.092 159.51 136.487 163.218 133.308C165.826 131.073 168.123 127.375 171.1 125.887" stroke="black" stroke-width="3" stroke-linecap="round"/>
<path d="M113.062 132.336C113.062 134.994 113.062 132.082 113.062 131.261C113.062 127.393 113.371 123.695 113.778 119.848C114.325 114.686 113.154 104.098 115.825 100.092" stroke="black" stroke-width="3" stroke-linecap="round"/>
<path d="M151.754 97.3267C151.754 106.28 154.518 61.657 154.518 70.6101" stroke="black" stroke-width="3" stroke-linecap="round"/>
<path d="M117.668 96.4058C120.157 96.0947 124.915 90.7582 126.829 89.0357C130.709 85.544 134.665 82.2207 138.857 79.1065C141.646 77.0348 144.222 74.4576 146.688 71.9924C147.687 70.9932 151.24 67.8467 150.833 67.8467" stroke="black" stroke-width="3" stroke-linecap="round"/>
<path d="M125.037 135.1C125.726 141.297 134.482 143.856 137.014 148.919" stroke="black" stroke-width="3" stroke-linecap="round"/>
<path d="M125.959 133.257C128.239 133.004 130.133 129.895 131.998 128.651C135.099 126.584 137.17 123.888 139.778 121.281C143.269 117.789 146.525 112.414 150.833 110.021C153.721 108.417 154.915 105.563 157.333 108.383C160.033 111.533 165.183 115.503 166.494 119.438" stroke="black" stroke-width="3" stroke-linecap="round"/>
<path d="M137.936 147.996C141.82 141.392 150.363 134.682 156.361 129.775C159.411 127.28 164.797 121.912 166.495 118.516" stroke="black" stroke-width="3" stroke-linecap="round"/>
<path d="M128.723 137.863C131.584 135.002 134.6 132.542 137.731 129.981C140.519 127.7 144.725 125.079 146.738 122.15C149.739 117.786 155.014 115.683 157.282 111.146" stroke="black" stroke-width="3" stroke-linecap="round"/>
<path d="M135.172 141.548C139.321 134.079 147.654 129.858 153.136 123.532C155.022 121.357 160.967 116.581 160.967 113.91" stroke="black" stroke-width="3" stroke-linecap="round"/>
<path d="M128.723 133.256C133.105 134.132 134.995 140.538 138.857 142.468" stroke="black" stroke-width="3" stroke-linecap="round"/>
<path d="M135.172 129.571C138.465 131.401 140.461 134.69 143.463 136.941" stroke="black" stroke-width="3" stroke-linecap="round"/>
<path d="M141.62 124.044C144.165 126.73 146.592 129.537 148.99 132.335" stroke="black" stroke-width="3" stroke-linecap="round"/>
<path d="M146.227 118.516C150.221 120.206 152.171 124.192 155.439 126.807" stroke="black" stroke-width="3" stroke-linecap="round"/>
<path d="M153.597 110.225C155.454 114.785 160.75 117.649 161.888 122.201" stroke="black" stroke-width="3" stroke-linecap="round"/>
<path d="M120.431 101.933C117.268 105.491 120.431 112.961 120.431 117.134C120.431 118.269 119.845 120.483 120.431 120.154C122.542 118.966 125.076 117.376 126.88 115.752C133.07 110.181 146.226 106.855 146.226 96.8149C146.226 92.1031 146.968 87.9622 147.148 83.3031C147.159 83.0028 148.597 77.8002 147.557 78.5432C145.484 80.0238 144.863 83.5003 142.541 84.4291C140.933 85.0726 138.368 87.7565 137.014 89.0354C135.17 90.7772 133.613 90.9963 131.486 92.0039C127.091 94.0859 123.103 97.0044 120.431 101.012" stroke="#5768FF" stroke-width="3" stroke-linecap="round"/>
</svg>
